<svg width="108" height="72" viewBox="0 0 108 72" fill="none" xmlns="http://www.w3.org/2000/svg">
<rect width="54.5563" height="54.5563" rx="1.70488" transform="matrix(0.83205 -0.5547 0.830139 0.557556 8.28027 30.2625)" fill="#D9D9D6"/>
<rect width="54.5563" height="54.5563" rx="1.70488" transform="matrix(0.83205 -0.5547 0.830139 0.557556 8.28125 35.3768)" fill="#D9D9D6" fill-opacity="0.64"/>
<rect width="54.5563" height="54.5563" rx="1.70488" transform="matrix(0.83205 -0.5547 0.830139 0.557556 8.28027 41.3441)" fill="#D9D9D6" fill-opacity="0.37"/>
<g clip-path="url(#clip0_56227_2528)">
<path d="M53.6058 36.2862L65.6706 28.2431L62.6613 26.2219L60.0975 27.9311C60.3642 28.5811 60.3673 29.2335 60.1067 29.8883C59.8462 30.543 59.3556 31.1106 58.6351 31.5909C57.9313 32.0601 57.0897 32.3807 56.1103 32.5526C55.1309 32.7245 54.1475 32.7256 53.1603 32.5559L50.5966 34.2651L53.6058 36.2862ZM56.6289 30.2435C57.1987 29.8637 57.4798 29.4134 57.4723 28.8926C57.4648 28.3718 57.1853 27.9261 56.6336 27.5556L60.6551 24.8745L53.6335 20.1585L41.5688 28.2017L48.5904 32.9177L52.612 30.2366C53.1637 30.6071 53.8329 30.7931 54.6195 30.7944C55.4062 30.7958 56.076 30.6122 56.6289 30.2435ZM55.612 37.6337C55.059 38.0023 54.3892 38.1859 53.6026 38.1846C52.8159 38.1832 52.1467 37.9973 51.595 37.6268L39.558 29.5422C39.0063 29.1716 38.7309 28.7232 38.7318 28.1968C38.7327 27.6704 39.0097 27.2229 39.5626 26.8542L51.6274 18.8111C52.1803 18.4424 52.8501 18.2588 53.6368 18.2601C54.4235 18.2615 55.0926 18.4474 55.6443 18.818L67.6813 26.9025C68.233 27.2731 68.5084 27.7216 68.5075 28.2479C68.5066 28.7743 68.2297 29.2219 67.6767 29.5905L55.612 37.6337ZM55.6028 43.0096C55.0498 43.3782 54.38 43.5618 53.5933 43.5605C52.8067 43.5591 52.1375 43.3732 51.5858 43.0027L37.5426 33.5707L39.5534 32.2301L53.5966 41.6621L67.6721 32.2785L69.6783 33.6259L55.6028 43.0096Z" fill="#1F1F1F"/>
</g>
<defs>
<clipPath id="clip0_56227_2528">
<rect width="29" height="29" fill="white" transform="matrix(0.83205 -0.5547 0.830139 0.557556 29.5137 30.869)"/>
</clipPath>
</defs>
</svg>
