<svg width="108" height="72" viewBox="0 0 108 72" fill="none" xmlns="http://www.w3.org/2000/svg">
<rect width="54.5563" height="54.5563" rx="1.70488" transform="matrix(0.83205 -0.5547 0.830139 0.557556 8.28027 30.2625)" fill="#D9D9D6"/>
<rect width="54.5563" height="54.5563" rx="1.70488" transform="matrix(0.83205 -0.5547 0.830139 0.557556 8.28125 35.3768)" fill="#D9D9D6" fill-opacity="0.64"/>
<rect width="54.5563" height="54.5563" rx="1.70488" transform="matrix(0.83205 -0.5547 0.830139 0.557556 8.28027 41.3441)" fill="#D9D9D6" fill-opacity="0.37"/>
<g clip-path="url(#clip0_56227_2522)">
<path d="M68.9198 33.9699L64.9075 31.275L54.8535 37.9777C54.3006 38.3463 53.6307 38.53 52.8441 38.5286C52.0574 38.5273 51.3883 38.3413 50.8366 37.9708L40.8057 31.2336L36.7841 33.9147L34.778 32.5672L38.7995 29.8862L34.7872 27.1913L36.798 25.8508L52.8473 36.6302L68.9337 25.906L70.9398 27.2535L66.9182 29.9345L70.9306 32.6294L68.9198 33.9699ZM60.8951 28.5802L52.8704 23.1905L44.8273 28.5526L42.8211 27.2051L50.8643 21.843C51.4172 21.4744 52.087 21.2908 52.8737 21.2921C53.6604 21.2935 54.3295 21.4794 54.8812 21.8499L62.9059 27.2397L60.8951 28.5802Z" fill="#1F1F1F"/>
</g>
<defs>
<clipPath id="clip0_56227_2522">
<rect width="29" height="29" fill="white" transform="matrix(0.83205 -0.5547 0.830139 0.557556 28.7568 29.869)"/>
</clipPath>
</defs>
</svg>
