<svg width="108" height="72" viewBox="0 0 108 72" fill="none" xmlns="http://www.w3.org/2000/svg">
<rect width="54.5563" height="54.5563" rx="1.70488" transform="matrix(0.83205 -0.5547 0.830139 0.557556 8.28027 30.2623)" fill="#D9D9D6"/>
<rect width="54.5563" height="54.5563" rx="1.70488" transform="matrix(0.83205 -0.5547 0.830139 0.557556 8.28125 35.3765)" fill="#D9D9D6" fill-opacity="0.64"/>
<rect width="54.5563" height="54.5563" rx="1.70488" transform="matrix(0.83205 -0.5547 0.830139 0.557556 8.28027 41.3438)" fill="#D9D9D6" fill-opacity="0.37"/>
<path d="M57.8498 33.9769L57.8628 26.3835L55.0008 26.3785L54.991 32.0568L50.7732 32.0496L50.7699 33.9648L57.8498 33.9769ZM65.3754 37.6186C62.4611 38.7784 59.205 39.1648 55.6071 38.7778C52.0092 38.3908 48.9397 37.344 46.3986 35.6372L40.2798 31.5276L45.3137 24.1443L56.3661 20.8034L62.4849 24.913C65.026 26.6198 66.5791 28.6776 67.144 31.0865C67.7089 33.4955 67.1194 35.6728 65.3754 37.6186ZM63.2689 36.2038C64.4599 34.6715 64.7975 32.9697 64.2819 31.0984C63.7663 29.2272 62.497 27.6122 60.4741 26.2535L55.7345 23.0702L47.4452 25.576L43.6698 31.1134L48.4094 34.2967C50.4323 35.6553 52.841 36.5107 55.6355 36.8627C58.43 37.2147 60.9745 36.995 63.2689 36.2038Z" fill="#1F1F1F"/>
</svg>
