<svg width="108" height="72" viewBox="0 0 108 72" fill="none" xmlns="http://www.w3.org/2000/svg">
<rect width="54.5563" height="54.5563" rx="1.70488" transform="matrix(0.83205 -0.5547 0.830139 0.557556 8.28027 30.2625)" fill="#D9D9D6"/>
<rect width="54.5563" height="54.5563" rx="1.70488" transform="matrix(0.83205 -0.5547 0.830139 0.557556 8.28125 35.3768)" fill="#D9D9D6" fill-opacity="0.64"/>
<rect width="54.5563" height="54.5563" rx="1.70488" transform="matrix(0.83205 -0.5547 0.830139 0.557556 8.28027 41.3441)" fill="#D9D9D6" fill-opacity="0.37"/>
<g clip-path="url(#clip0_56227_2516)">
<path d="M37.4102 33.7691L35.3462 32.3829C34.7786 32.0017 34.4953 31.5403 34.4962 30.9987C34.4971 30.4572 34.782 29.9968 35.3509 29.6175L51.9007 18.5844C52.4696 18.2051 53.1587 18.0162 53.968 18.0175C54.7773 18.0189 55.4658 18.2102 56.0334 18.5915L58.0973 19.9777L56.0286 21.3568L53.9646 19.9706L37.4149 31.0038L39.4789 32.39L37.4102 33.7691ZM58.0641 39.3354L56.0001 37.9492L51.8627 40.7075C51.2938 41.0867 50.6047 41.2757 49.7953 41.2743C48.986 41.2729 48.2976 41.0816 47.73 40.7004L45.666 39.3141L47.7347 37.935L49.7987 39.3212L66.3484 28.2881L64.2845 26.9018L66.3532 25.5227L68.4172 26.9089C68.9847 27.2901 69.2681 27.7515 69.2671 28.2931C69.2662 28.8346 68.9813 29.2951 68.4124 29.6743L64.275 32.4326L66.3389 33.8189L58.0641 39.3354ZM44.4343 34.6108L44.4405 31.0158L41.5476 31.0109L41.5381 36.5416L49.8035 36.5558L49.8068 34.6201L44.4343 34.6108ZM59.3291 24.681L59.3229 28.276L62.2158 28.281L62.2253 22.7502L53.9599 22.736L53.9566 24.6718L59.3291 24.681Z" fill="#1F1F1F"/>
</g>
<defs>
<clipPath id="clip0_56227_2516">
<rect width="29.8355" height="29.8355" fill="white" transform="matrix(0.83205 -0.5547 0.830139 0.557556 28.1182 30.2965)"/>
</clipPath>
</defs>
</svg>
