<svg width="108" height="72" viewBox="0 0 108 72" fill="none" xmlns="http://www.w3.org/2000/svg">
<rect width="54.5563" height="54.5563" rx="1.70488" transform="matrix(0.83205 -0.5547 0.830139 0.557556 8.28027 30.2625)" fill="#D9D9D6"/>
<rect width="54.5563" height="54.5563" rx="1.70488" transform="matrix(0.83205 -0.5547 0.830139 0.557556 8.28125 35.3768)" fill="#D9D9D6" fill-opacity="0.64"/>
<rect width="54.5563" height="54.5563" rx="1.70488" transform="matrix(0.83205 -0.5547 0.830139 0.557556 8.28027 41.3441)" fill="#D9D9D6" fill-opacity="0.37"/>
<path d="M57.6454 25.4615C56.8549 25.9885 55.9333 26.2881 54.8804 26.3605C53.8276 26.4328 52.8444 26.2921 51.9308 25.9383L46.7096 29.4191C47.1382 29.911 47.352 30.4397 47.351 31.0051C47.35 31.5705 47.1344 32.0985 46.7042 32.589L51.9133 36.0877C52.8281 35.737 53.8118 35.5997 54.8644 35.6756C55.917 35.7516 56.8376 36.0544 57.6263 36.5841C58.5394 37.1974 58.9952 37.9397 58.9937 38.811C58.9922 39.6822 58.5339 40.4229 57.6186 41.0331C56.7034 41.6433 55.5947 41.9472 54.2927 41.945C52.9906 41.9428 51.883 41.635 50.9698 41.0217C50.1812 40.492 49.7321 39.8749 49.6225 39.1702C49.5129 38.4656 49.7218 37.8079 50.2492 37.1971L45.0401 33.6984C44.1253 34.049 43.1416 34.1864 42.089 34.1104C41.0364 34.0345 40.1227 33.7363 39.3479 33.2159C38.4347 32.6026 37.9789 31.8603 37.9804 30.989C37.9819 30.1178 38.4403 29.377 39.3555 28.7669C40.1321 28.2492 41.0468 27.9541 42.0997 27.8818C43.1525 27.8094 44.1358 27.9502 45.0494 28.3039L50.2705 24.8232C49.7452 24.2106 49.5385 23.5521 49.6505 22.8479C49.7626 22.1436 50.2138 21.528 51.0042 21.0011C51.9195 20.3909 53.0282 20.0869 54.3302 20.0892C55.6323 20.0914 56.7399 20.3992 57.653 21.0125C58.5662 21.6258 59.022 22.3681 59.0205 23.2394C59.019 24.1106 58.5606 24.8513 57.6454 25.4615ZM55.9583 39.918C56.416 39.6129 56.6417 39.2402 56.6355 38.7999C56.6293 38.3597 56.4049 37.9908 55.9622 37.6935C55.5056 37.3868 54.9518 37.2329 54.3008 37.2318C53.6497 37.2307 53.0954 37.3827 52.6378 37.6878C52.194 37.9836 51.9683 38.3517 51.9606 38.7919C51.9529 39.2322 52.1774 39.6056 52.634 39.9123C53.0767 40.2096 53.6305 40.3589 54.2954 40.36C54.9603 40.3612 55.5146 40.2138 55.9583 39.918ZM44.3364 32.1122C44.794 31.8071 45.0232 31.4368 45.0239 31.0011C45.0247 30.5655 44.7968 30.1944 44.3402 29.8877C43.8836 29.581 43.3298 29.4272 42.6788 29.426C42.0278 29.4249 41.4735 29.5769 41.0158 29.882C40.5721 30.1778 40.3463 30.5459 40.3387 30.9861C40.331 31.4264 40.5554 31.7998 41.012 32.1065C41.4686 32.4132 42.0258 32.5647 42.6838 32.5612C43.3418 32.5577 43.8926 32.408 44.3364 32.1122ZM69.2673 33.2673C68.3521 33.8775 67.2434 34.1814 65.9414 34.1792C64.6393 34.177 63.5317 33.8692 62.6186 33.2559C61.7054 32.6426 61.2496 31.9003 61.2511 31.029C61.2526 30.1577 61.7109 29.417 62.6262 28.8069C63.5415 28.1967 64.6501 27.8927 65.9522 27.895C67.2542 27.8972 68.3618 28.205 69.275 28.8183C70.1881 29.4316 70.6439 30.1739 70.6424 31.0451C70.6409 31.9164 70.1826 32.6571 69.2673 33.2673ZM67.607 32.1522C68.0647 31.8471 68.2904 31.4744 68.2842 31.0341C68.2781 30.5939 68.0536 30.225 67.6109 29.9277C67.1543 29.621 66.6005 29.4671 65.9495 29.466C65.2984 29.4649 64.7441 29.6169 64.2865 29.922C63.8288 30.2271 63.5997 30.5974 63.5989 31.033C63.5982 31.4687 63.8261 31.8398 64.2827 32.1465C64.7254 32.4438 65.2757 32.5954 65.9337 32.6012C66.5916 32.6069 67.1494 32.4573 67.607 32.1522ZM55.9851 24.3464C56.4427 24.0413 56.6719 23.671 56.6726 23.2353C56.6734 22.7997 56.4455 22.4285 55.9889 22.1219C55.5323 21.8152 54.9785 21.6613 54.3275 21.6602C53.6765 21.6591 53.1222 21.8111 52.6645 22.1162C52.2069 22.4213 51.9777 22.7916 51.977 23.2273C51.9762 23.6629 52.2041 24.034 52.6607 24.3407C53.1173 24.6473 53.6711 24.8012 54.3221 24.8024C54.9731 24.8035 55.5275 24.6515 55.9851 24.3464Z" fill="#1F1F1F"/>
</svg>
